<svg width="574" height="104" viewBox="0 0 574 104" fill="none" xmlns="http://www.w3.org/2000/svg">
<g clip-path="url(#clip0_221_26)">
<path d="M64.7859 1.11301C54.258 3.34215 33.2975 8.70601 23.5042 13.22C11.6569 18.6953 -6.67845 29.1444 2.47563 35.7064C5.99852 38.2281 23.0689 38.451 27.3671 38.6461C35.3922 39.0083 49.8238 38.4232 57.8489 38.7854C60.7461 38.9108 63.8338 39.1058 66.1869 40.8474C73.2463 46.058 70.0634 61.6898 78.7143 62.6511C87.2154 63.5985 88.2492 47.6323 96.5872 45.6818C105.034 43.7034 109.346 66.2316 117.711 68.5026C123.886 70.1744 125.029 45.0827 135.081 45.0827C145.132 45.0827 143.827 58.973 149.975 58.973C156.123 58.973 158.421 46.671 168.922 46.9635C184.605 47.3954 210.816 51.4497 225.846 56.0612C238.727 60.0179 252.696 66.9282 264.829 61.021C270.406 58.3043 274.595 53.1773 280.158 50.4466C286.102 47.5208 297.664 56.1866 304.261 56.3259C315.823 56.5767 322.719 48.2732 334.28 48.5239C339.49 48.6354 345.706 49.3599 348.1 54.0968C349.093 56.0612 351.582 65.6883 352.738 67.5552C356.587 73.8107 363.361 61.9127 369.849 58.6665C381.288 52.9543 394.686 53.9296 407.377 55.0163C415.919 55.7547 425.236 56.8553 431.221 63.1526C435.057 67.193 439.328 73.7271 444.265 71.2333C447.475 69.6171 448.291 64.7827 451.637 63.4731C456.112 61.7176 459.703 67.4855 461.213 72.1388C463.811 80.1219 466.409 88.119 469.007 96.1021C470.15 99.6269 472.367 103.904 475.971 103.472C479.358 103.068 480.691 98.8467 481.276 95.4194C482.895 85.848 478.664 66.7053 486.132 66.7053C493.599 66.7053 494.687 81.4176 502.604 80.9857C512.18 80.4563 504.576 53.4977 511.894 53.4977C519.212 53.4977 511.894 74.1033 521.034 74.1033C530.175 74.1033 533.249 56.1587 545.722 49.75C548.211 48.4682 571.552 44.5812 573.157 42.2545C578.326 34.7451 558.793 22.8332 551.339 17.734C538.105 8.66421 522.15 -0.586702 507.133 4.81895C498.741 7.84222 492.117 15.1148 483.466 17.2325C463.73 22.0669 444.809 -1.63161 425.318 4.15021C421.169 5.37624 417.469 7.88401 413.321 9.11004C398.495 13.4569 383.587 0.500002 368.203 1.76782C360.573 2.39477 353.622 6.4908 346.141 8.14872C328.214 12.1194 310.246 1.82355 291.897 1.30806C262.435 0.48607 234.415 24.8115 205.933 17.0653C194.861 14.0559 184.918 6.32362 173.465 6.19823C163.985 6.10071 155.266 11.2695 145.976 13.2061C118.881 18.8207 92.0713 -3.40099 64.7859 1.11301Z" fill="white"/>
<mask id="mask0_221_26" style="mask-type:luminance" maskUnits="userSpaceOnUse" x="0" y="0" width="575" height="104">
<path d="M64.7859 1.11301C54.258 3.34215 33.2975 8.70601 23.5042 13.22C11.6569 18.6953 -6.67845 29.1444 2.47563 35.7064C5.99852 38.2281 23.0689 38.451 27.3671 38.6461C35.3922 39.0083 49.8238 38.4232 57.8489 38.7854C60.7461 38.9108 63.8338 39.1058 66.1869 40.8474C73.2463 46.058 70.0634 61.6898 78.7143 62.6511C87.2154 63.5985 88.2492 47.6323 96.5872 45.6818C105.034 43.7034 109.346 66.2316 117.711 68.5026C123.886 70.1744 125.029 45.0827 135.081 45.0827C145.132 45.0827 143.827 58.973 149.975 58.973C156.123 58.973 158.421 46.671 168.922 46.9635C184.605 47.3954 210.816 51.4497 225.846 56.0612C238.727 60.0179 252.696 66.9282 264.829 61.021C270.406 58.3043 274.595 53.1773 280.158 50.4466C286.102 47.5208 297.664 56.1866 304.261 56.3259C315.823 56.5767 322.719 48.2732 334.28 48.5239C339.49 48.6354 345.706 49.3599 348.1 54.0968C349.093 56.0612 351.582 65.6883 352.738 67.5552C356.587 73.8107 363.361 61.9127 369.849 58.6665C381.288 52.9543 394.686 53.9296 407.377 55.0163C415.919 55.7547 425.236 56.8553 431.221 63.1526C435.057 67.193 439.328 73.7271 444.265 71.2333C447.475 69.6171 448.291 64.7827 451.637 63.4731C456.112 61.7176 459.703 67.4855 461.213 72.1388C463.811 80.1219 466.409 88.119 469.007 96.1021C470.15 99.6269 472.367 103.904 475.971 103.472C479.358 103.068 480.691 98.8467 481.276 95.4194C482.895 85.848 478.664 66.7053 486.132 66.7053C493.599 66.7053 494.687 81.4176 502.604 80.9857C512.18 80.4563 504.576 53.4977 511.894 53.4977C519.212 53.4977 511.894 74.1033 521.034 74.1033C530.175 74.1033 533.249 56.1587 545.722 49.75C548.211 48.4682 571.552 44.5812 573.157 42.2545C578.326 34.7451 558.793 22.8332 551.339 17.734C538.105 8.66421 522.15 -0.586702 507.133 4.81895C498.741 7.84222 492.117 15.1148 483.466 17.2325C463.73 22.0669 444.809 -1.63161 425.318 4.15021C421.169 5.37624 417.469 7.88401 413.321 9.11004C398.495 13.4569 383.587 0.500002 368.203 1.76782C360.573 2.39477 353.622 6.4908 346.141 8.14872C328.214 12.1194 310.246 1.82355 291.897 1.30806C262.435 0.48607 234.415 24.8115 205.933 17.0653C194.861 14.0559 184.918 6.32362 173.465 6.19823C163.985 6.10071 155.266 11.2695 145.976 13.2061C118.881 18.8207 92.0713 -3.40099 64.7859 1.11301Z" fill="white"/>
</mask>
<g mask="url(#mask0_221_26)">
<path opacity="0.3" d="M4.35275 17.929C-4.91014 21.6349 -11.5479 37.6708 0.544219 42.3798C5.64493 44.3721 11.8338 44.3442 17.2201 44.6507C25.2997 45.1244 33.4064 45.0966 41.4995 45.3195C44.9544 45.417 48.3957 45.5981 51.8506 45.7653C54.7478 45.9046 61.6439 44.7204 63.6298 46.866C65.3028 48.6771 65.4797 53.3165 66.3366 55.6989C67.4655 58.8058 68.9073 61.9126 71.2333 64.2811C75.8171 68.9623 82.4412 69.3384 87.3515 65.0613C89.6366 63.069 91.3641 60.3244 92.8603 57.6773C94.3293 55.0859 96.7912 48.1338 100.001 52.3831C102.926 56.2562 103.048 62.9436 105.496 67.3322C108.353 72.4453 113.059 75.8865 118.99 75.1063C125.151 74.2983 128.796 69.4777 131.054 63.9606C131.952 61.7872 132.455 58.2206 133.992 56.4512C136.196 53.9017 137.76 56.8413 140.236 58.8197C145.772 63.2501 151.58 64.3229 157.728 60.2965C161.631 57.733 164.692 54.8769 169.221 53.3444C173.601 51.8676 178.212 51.4635 182.81 51.6029C202.546 52.2437 219.766 63.1665 238.537 67.9174C247.5 70.1883 257.253 71.0103 266.121 67.8198C273.847 65.0473 278.676 55.0302 287.218 55.9357C296.005 56.8553 303.948 61.7036 312.993 61.1464C321.372 60.6448 330.39 54.6958 338.701 55.9497C345.978 57.0503 347.134 67.6666 352.997 71.5397C359.947 76.1512 366.245 71.888 372.692 68.6697C382.091 63.9746 392.836 61.8708 403.256 62.6928C408.261 63.0968 414.45 63.9467 418.952 66.3152C421.945 67.8895 424.298 70.9267 426.719 73.2533C431.452 77.7952 437.043 82.8526 444.048 81.1807C446.904 80.498 449.325 78.8262 451.474 76.8339C452.454 75.9283 453.555 74.8973 454.331 73.8106C454.494 73.5738 455.65 72.6682 455.65 72.4035C455.65 71.9577 453.555 71.9298 453.365 72.501C453.419 72.3199 456.657 79.2441 456.861 80.0661C457.69 83.5074 458.166 87.0183 458.942 90.4734C460.424 97.0912 463.036 103.096 468.245 107.485C473.224 111.692 480.868 114.827 485.411 108.195C488.159 104.183 490.131 97.7599 490.117 92.8837C490.117 88.1328 488.852 83.368 489.288 78.6172C489.342 77.9903 490.022 75.7193 489.886 75.2456C489.995 74.8973 490.117 74.549 490.226 74.2147C488.607 74.1311 487.002 74.0475 485.384 73.9639C485.153 74.7162 488.58 78.4222 489.152 79.0491C494.728 85.2071 502.713 86.3495 508.779 80.0661C511.187 77.5723 512.628 74.5769 513.567 71.2193C513.961 69.7982 516.287 62.1495 515.607 61.0628C515.172 60.3522 509.255 60.7423 509.337 60.603C509.133 60.9513 509.799 62.4699 509.935 63.0272C510.289 64.4622 510.575 65.8833 511.064 67.2765C512.492 71.3168 515.009 73.7688 518.804 75.6357C535.738 83.9532 537.928 60.5473 549.666 55.6153C559.745 51.38 574.68 50.5998 576.87 36.9881C578.815 24.895 564.887 13.0527 556.998 6.17029C550.537 0.513861 543.858 -4.04194 535.969 -7.28811C529.195 -10.0885 524.639 1.30799 531.018 4.74922C537.996 8.51089 544.47 13.3175 550.278 18.7649C554.223 22.4708 561.092 27.974 562.874 33.3379C563.717 35.8735 562.588 36.389 559.623 37.6986C554.06 40.1646 547.953 41.0423 542.43 43.6894C537.261 46.1554 533.453 49.6663 530.488 54.6401C529.304 56.6324 528.121 60.6866 526.23 62.038C522.871 64.4343 523.51 60.199 522.612 57.1896C520.98 51.7004 516.995 47.4232 511.023 48.5657C503.882 49.9171 502.359 57.2314 501.244 63.4034C501.053 64.4343 500.564 69.5613 499.435 69.7982C498.754 69.9375 494.021 62.4978 492.674 61.7315C485.737 57.7887 479.004 64.1 476.951 70.6202C474.434 78.5893 477.876 86.0848 476.869 93.9007C476.733 94.9178 474.638 98.3868 474.842 99.9333C474.706 100.226 474.557 100.532 474.421 100.825C479.168 100.073 480.174 99.1113 477.44 97.9549C476.339 96.5199 474.747 95.7955 473.768 94.1515C467.756 84.0368 471.551 69.6728 460.955 61.9266C456.249 58.4853 451.352 58.7918 447.026 62.7067C445.544 64.0442 443.762 67.3601 441.926 68.0149C439.695 68.8229 436.771 64.9637 435.125 63.3616C430.527 58.9172 426.501 55.0998 420.38 53.0239C411.621 50.0425 402.004 48.8443 392.809 49.8614C383.737 50.8645 374.773 53.8181 366.639 58.0256C364.572 59.0983 361.348 62.0798 359.077 61.021C356.628 59.8785 354.642 53.7484 352.969 51.5471C342.088 37.2667 326.677 48.3706 312.993 49.6524C304.479 50.4604 296.358 45.3056 287.952 44.4975C279.954 43.7312 274.813 46.9913 269.059 52.3552C254.682 65.7579 233.177 54.445 217.767 48.5935C202.573 42.8256 185.462 37.6986 169.208 41.6414C165.535 42.5331 161.863 43.982 158.598 45.9186C156.476 47.1864 152.913 51.3103 150.668 51.575C147.608 51.9372 145.037 48.2034 142.766 46.5734C140.236 44.7761 137.461 43.564 134.332 43.8009C129.123 44.2049 125.926 47.9248 123.818 52.4945C122.594 55.1416 120.635 65.521 116.419 63.877C112.692 62.4142 111.672 51.979 110.08 48.5378C107.537 43.0625 102.314 39.0779 96.1655 39.8581C87.7324 40.9169 86.3586 49.0812 81.9788 54.8908C79.0816 58.7361 77.6398 55.6571 76.266 51.979C75.0282 48.6493 74.865 44.8458 73.2464 41.6693C69.8323 34.9679 62.7729 35.1073 56.3392 35.0655C48.5589 35.0376 40.765 34.4942 32.9711 34.3689C25.3405 34.2435 17.669 34.3271 10.0519 33.7419C8.66455 33.6305 4.47517 33.8394 3.38702 32.7109C1.19711 30.4261 5.26408 23.5993 6.77389 22.1643C8.51493 20.4925 6.71948 16.9259 4.33915 17.8733L4.35275 17.929Z" fill="#336EC2"/>
<path opacity="0.15" d="M581.74 22.0668C578.122 11.9381 571.076 4.1501 563.051 -2.48158C561.228 -4.32061 559.147 -5.95067 556.807 -7.31601C556.495 -7.53893 556.182 -7.77577 555.869 -7.99869C555.855 -7.95689 555.828 -7.90116 555.814 -7.85937C540.431 -16.1908 523.211 -3.65187 537.479 6.67181C538.037 7.07584 535.398 5.6687 536.105 6.19812C536.241 6.56036 544.334 13.6936 544.402 18.9739C544.375 20.9104 544.334 21.3423 543.137 23.0699C535.194 38.0469 514.152 29.604 502.114 38.033C496.796 38.5763 494.769 50.6694 489.464 51.157C483.915 51.6725 476.896 40.3318 471.66 38.8828C461.281 36.0267 453.759 48.691 443.735 52.0905C433.601 55.5317 426.828 39.468 417.225 36.4029C407.2 33.1985 396.931 33.2125 386.62 34.6196C376.895 35.9571 366.993 39.1475 357.118 38.6181C347.257 38.0887 339.218 30.4678 329.302 34.0763C319.944 37.4757 316.122 45.4588 305.063 42.3658C294.345 39.3844 285.382 33.7001 273.97 38.228C264.04 42.1708 261.646 45.6538 250.615 43.0485C241.597 40.903 232.647 38.4649 223.615 36.389C205.076 32.1397 185.448 29.6458 166.868 35.2605C161.427 36.9045 156.653 40.1228 151.362 41.9618C145.472 44.0098 138.291 37.9354 131.871 38.5763C125.464 39.2033 121.302 48.5238 117.004 47.9944C112.202 47.4093 110.38 35.7063 98.9539 35.7063C87.5284 35.7063 84.7808 46.9495 80.6594 46.0161C77.531 45.3055 76.4292 35.6784 74.2529 33.8394C69.2202 27.2774 55.047 26.3439 44.0703 27.7511C36.3444 28.7403 22.6745 28.8796 15.4383 25.6473C5.87617 21.3841 18.798 13.5403 10.4056 9.096C2.67972 4.98603 -3.79478 17.7757 -3.97161 23.7804C-4.6109 44.3163 18.9068 45.0687 33.0664 44.8318C41.9484 44.6786 52.313 44.6507 59.522 50.8226C67.52 57.6633 71.5461 67.6665 84.1415 64.0303C87.3107 63.1107 94.0165 60.2268 96.0839 57.4265C96.3424 57.0781 96.628 56.9249 96.8593 56.8413C97.689 57.6633 98.4235 59.0008 98.9948 59.781C108.339 72.4453 125.478 78.2967 134.346 60.9652C134.849 61.1603 135.339 61.3692 135.543 61.4528C144.221 64.8105 150.097 66.4545 159.183 63.2222C167.453 60.2686 174.58 56.7577 183.49 56.3537C200.982 55.5735 218.487 61.2438 235.123 66.0086C243.46 68.391 252.492 71.1217 261.252 70.7455C269.1 70.4112 273.97 65.8832 281.111 64.0163C288.537 62.0798 294.821 67.2904 301.908 69.1155C311.076 71.4839 319.141 69.5613 327.656 65.5907C328.812 65.0473 330.023 64.5318 331.22 63.9745C338.701 77.9624 352.929 85.9315 368.176 79.3416C374.161 76.7503 378.405 71.0242 384.417 68.7533C392.388 65.7439 399.937 70.7734 407.078 73.8803C410.084 75.1899 413.049 76.3323 416.028 77.3076C420.299 91.5183 442.266 92.5771 453.678 91.365C454.684 91.2536 455.718 91.1282 456.765 91.0167C458.384 95.266 459.867 99.5571 462.982 103.082C474.285 115.886 494.674 110.494 497.122 94.1654C508.793 88.7597 528.638 82.6575 531.141 67.6805C557.419 71.7904 593.587 55.253 581.74 22.0668ZM114.501 51.2267C114.433 51.3381 114.379 51.4217 114.392 51.4356C114.365 51.3521 114.419 51.2824 114.501 51.2267ZM118.296 50.6694C119.139 52.5641 119.234 50.544 118.296 50.6694V50.6694ZM132.809 60.5194C132.809 60.4497 133.068 60.5194 133.408 60.6169C133.068 60.8816 132.809 60.9513 132.809 60.5194Z" fill="#336EC2"/>
<g opacity="0.15">
<path d="M87.066 25.9122C88.3038 25.9122 88.3038 23.9338 87.066 23.9338C85.8283 23.9338 85.8283 25.9122 87.066 25.9122Z" fill="#336EC2"/>
<path d="M88.8886 15.5047C89.9903 15.5047 89.9903 13.7493 88.8886 13.7493C87.7868 13.7493 87.7868 15.5047 88.8886 15.5047Z" fill="#336EC2"/>
<path d="M163.427 32.8223C163.549 32.8223 163.658 32.8084 163.753 32.7526C163.862 32.7109 163.944 32.6551 164.025 32.5715C164.107 32.4879 164.161 32.4043 164.202 32.2929C164.257 32.1954 164.284 32.0839 164.27 31.9585L164.243 31.7217C164.202 31.5684 164.134 31.443 164.025 31.3455L163.849 31.2062C163.713 31.1226 163.576 31.0947 163.427 31.0947C163.304 31.0947 163.196 31.1087 163.1 31.1644C162.992 31.2062 162.91 31.2619 162.828 31.3455C162.747 31.4291 162.692 31.5127 162.652 31.6241C162.597 31.7217 162.57 31.8331 162.584 31.9585L162.611 32.1954C162.652 32.3486 162.72 32.474 162.828 32.5715L163.005 32.7109C163.141 32.7944 163.277 32.8223 163.427 32.8223Z" fill="#336EC2"/>
<path d="M178.525 29.1304C179.096 29.1304 179.096 28.2249 178.525 28.2249C177.954 28.2249 177.954 29.1304 178.525 29.1304Z" fill="#336EC2"/>
<path d="M280.036 22.2202C281.342 22.2202 281.342 20.1304 280.036 20.1304C278.73 20.1304 278.73 22.2202 280.036 22.2202Z" fill="#336EC2"/>
<path d="M305.635 13.7632C306.328 13.7632 306.328 12.6626 305.635 12.6626C304.941 12.6626 304.941 13.7632 305.635 13.7632Z" fill="#336EC2"/>
<path d="M432.309 11.771C432.853 11.771 432.853 10.9211 432.309 10.9211C431.765 10.9211 431.765 11.771 432.309 11.771Z" fill="#336EC2"/>
<path d="M425.971 14.822L425.875 14.4598L425.78 14.2369C425.726 14.1254 425.644 14.0418 425.549 13.9722C425.495 13.9164 425.427 13.8746 425.345 13.8468C425.236 13.791 425.114 13.7632 424.991 13.7632L424.746 13.791L424.529 13.8886C424.42 13.9443 424.338 14.0279 424.27 14.1254C424.189 14.2229 424.134 14.3205 424.107 14.4459L424.012 14.8081C423.958 14.9892 423.958 15.1843 424.012 15.3654C424.066 15.5465 424.148 15.6997 424.27 15.8251L424.474 15.9923C424.638 16.0898 424.801 16.1316 424.991 16.1316C425.127 16.1316 425.263 16.1038 425.386 16.048C425.508 16.0063 425.617 15.9366 425.712 15.8391C425.835 15.7137 425.93 15.5604 425.971 15.3793C426.025 15.1982 426.025 15.0031 425.971 14.822Z" fill="#336EC2"/>
<path d="M523.306 14.9197C524.272 14.9197 524.272 13.3872 523.306 13.3872C522.34 13.3872 522.34 14.9197 523.306 14.9197Z" fill="#336EC2"/>
<path d="M34.0185 18.3191C34.5489 18.3191 34.5489 17.4832 34.0185 17.4832C33.488 17.4832 33.488 18.3191 34.0185 18.3191Z" fill="#336EC2"/>
<path d="M24.4156 21.6628C25.599 21.6628 25.599 19.7681 24.4156 19.7681C23.2322 19.7681 23.2322 21.6628 24.4156 21.6628Z" fill="#336EC2"/>
<path d="M243.447 32.3905C244.576 32.3905 244.576 30.5933 243.447 30.5933C242.318 30.5933 242.318 32.3905 243.447 32.3905Z" fill="#336EC2"/>
<path d="M229.736 30.4122C230.743 30.4122 230.743 28.8101 229.736 28.8101C228.73 28.8101 228.73 30.4122 229.736 30.4122Z" fill="#336EC2"/>
<path d="M130.048 21.7325C130.742 21.7325 130.742 20.6318 130.048 20.6318C129.354 20.6318 129.354 21.7325 130.048 21.7325Z" fill="#336EC2"/>
<path d="M361.43 22.8193C362.314 22.8193 362.314 21.4121 361.43 21.4121C360.546 21.4121 360.546 22.8193 361.43 22.8193Z" fill="#336EC2"/>
<path d="M383.37 21.6488C383.954 21.6488 383.954 20.7292 383.37 20.7292C382.785 20.7292 382.785 21.6488 383.37 21.6488Z" fill="#336EC2"/>
<path d="M486.717 32.2373C487.655 32.2373 487.655 30.7466 486.717 30.7466C485.778 30.7466 485.778 32.2373 486.717 32.2373Z" fill="#336EC2"/>
<path d="M298.317 20.6735C298.507 20.6735 298.671 20.6457 298.834 20.5621C298.997 20.5064 299.147 20.4088 299.269 20.2834C299.405 20.1581 299.487 20.0187 299.541 19.8376C299.623 19.6704 299.664 19.5033 299.65 19.3082L299.596 18.946C299.527 18.7091 299.419 18.5141 299.255 18.3469L298.983 18.1379C298.779 18.0125 298.548 17.9568 298.303 17.9568C298.113 17.9568 297.95 17.9847 297.786 18.0682C297.623 18.124 297.474 18.2215 297.351 18.3469C297.215 18.4723 297.134 18.6116 297.079 18.7927C296.998 18.9599 296.957 19.1271 296.97 19.3221L297.025 19.6844C297.093 19.9212 297.202 20.1163 297.365 20.2834L297.637 20.4924C297.841 20.6178 298.072 20.6735 298.317 20.6735Z" fill="#336EC2"/>
</g>
<g opacity="0.35">
<path d="M77.0004 19.0575C79.0407 19.0575 79.0407 15.8113 77.0004 15.8113C74.9601 15.8113 74.9601 19.0575 77.0004 19.0575Z" fill="#336EC2"/>
<path d="M170.282 28.42C171.139 28.42 171.139 27.0547 170.282 27.0547C169.425 27.0547 169.425 28.42 170.282 28.42Z" fill="#336EC2"/>
<path d="M289.176 14.7665C291.121 14.7665 291.121 11.6736 289.176 11.6736C287.231 11.6736 287.231 14.7665 289.176 14.7665Z" fill="#336EC2"/>
<path d="M531.29 16.0762C531.29 16.0762 531.168 16.0762 531.1 16.0623C530.909 16.0623 530.733 16.0901 530.569 16.1876C530.393 16.2434 530.257 16.3409 530.134 16.4802L529.916 16.7589C529.794 16.9818 529.726 17.2186 529.726 17.4694C529.726 17.5391 529.726 17.5948 529.74 17.6644L529.794 18.0824L529.944 18.4586C530.039 18.6397 530.175 18.7929 530.338 18.9044C530.433 19.0019 530.542 19.0716 530.678 19.1134C530.801 19.183 530.923 19.2248 531.073 19.2248C531.209 19.2666 531.345 19.2666 531.481 19.2248C531.617 19.2248 531.753 19.183 531.875 19.1134C532.066 19.0437 532.229 18.9462 532.378 18.7929L532.623 18.4725L532.773 18.0963L532.827 17.6784L532.773 17.2604L532.623 16.8842C532.528 16.7031 532.392 16.5499 532.229 16.4384C532.134 16.3409 532.025 16.2712 531.889 16.2294C531.698 16.1319 531.508 16.0901 531.29 16.0901V16.0762Z" fill="#336EC2"/>
<path d="M520.096 21.6071C521.225 21.6071 521.225 19.8098 520.096 19.8098C518.967 19.8098 518.967 21.6071 520.096 21.6071Z" fill="#336EC2"/>
<path d="M113.589 29.4092C114.514 29.4092 114.514 27.9324 113.589 27.9324C112.665 27.9324 112.665 29.4092 113.589 29.4092Z" fill="#336EC2"/>
<path d="M371.481 12.9832C372.937 12.9832 372.95 10.6565 371.481 10.6565C370.012 10.6565 370.012 12.9832 371.481 12.9832Z" fill="#336EC2"/>
<path d="M442.824 41.5022C443.64 41.5022 443.64 40.2065 442.824 40.2065C442.007 40.2065 442.007 41.5022 442.824 41.5022Z" fill="#336EC2"/>
<path d="M450.141 34.9681C450.985 34.9681 450.985 33.6306 450.141 33.6306C449.298 33.6306 449.298 34.9681 450.141 34.9681Z" fill="#336EC2"/>
</g>
</g>
</g>
<defs>
<clipPath id="clip0_221_26">
<rect width="574" height="103" fill="white" transform="translate(0 0.5)"/>
</clipPath>
</defs>
</svg>
