<svg width="65" height="66" viewBox="0 0 65 66" fill="none" xmlns="http://www.w3.org/2000/svg">
<g clip-path="url(#clip0_316_1015)">
<path d="M32.5 65.7566C50.4493 65.7566 65 51.2058 65 33.2566C65 15.3073 50.4493 0.756592 32.5 0.756592C14.5507 0.756592 0 15.3073 0 33.2566C0 51.2058 14.5507 65.7566 32.5 65.7566Z" fill="#0052FF"/>
<path fill-rule="evenodd" clip-rule="evenodd" d="M9.75 33.2566C9.75 45.8211 19.9355 56.0066 32.5 56.0066C45.0645 56.0066 55.25 45.8211 55.25 33.2566C55.25 20.6921 45.0645 10.5066 32.5 10.5066C19.9355 10.5066 9.75 20.6921 9.75 33.2566ZM26.6861 25.926C25.8485 25.926 25.1694 26.6051 25.1694 27.4427V39.0704C25.1694 39.9081 25.8485 40.5872 26.6861 40.5872H38.3139C39.1515 40.5872 39.8306 39.9081 39.8306 39.0704V27.4427C39.8306 26.6051 39.1515 25.926 38.3139 25.926H26.6861Z" fill="white"/>
</g>
<defs>
<clipPath id="clip0_316_1015">
<rect width="65" height="65" fill="white" transform="translate(0 0.756592)"/>
</clipPath>
</defs>
</svg>
