<svg width="130" height="130" viewBox="0 0 130 130" fill="none" xmlns="http://www.w3.org/2000/svg">
<g clip-path="url(#clip0_316_1012)">
<path d="M65 130C100.899 130 130 100.899 130 65C130 29.1015 100.899 0 65 0C29.1015 0 0 29.1015 0 65C0 100.899 29.1015 130 65 130Z" fill="#0052FF"/>
<path fill-rule="evenodd" clip-rule="evenodd" d="M19.5 65C19.5 90.129 39.871 110.5 65 110.5C90.129 110.5 110.5 90.129 110.5 65C110.5 39.871 90.129 19.5 65 19.5C39.871 19.5 19.5 39.871 19.5 65ZM53.3723 50.3389C51.697 50.3389 50.3389 51.697 50.3389 53.3723V76.6277C50.3389 78.303 51.697 79.6611 53.3723 79.6611H76.6277C78.303 79.6611 79.6611 78.303 79.6611 76.6277V53.3723C79.6611 51.697 78.303 50.3389 76.6277 50.3389H53.3723Z" fill="white"/>
</g>
<defs>
<clipPath id="clip0_316_1012">
<rect width="130" height="130" fill="white"/>
</clipPath>
</defs>
</svg>
