<svg width="149" height="28" viewBox="0 0 149 28" fill="none" xmlns="http://www.w3.org/2000/svg">
<g filter="url(#filter0_d_241_9)">
<ellipse cx="13.8597" cy="10.0778" rx="9.09606" ry="9.72265" fill="white"/>
<ellipse cx="13.8597" cy="10.0778" rx="9.09606" ry="9.72265" fill="black" fill-opacity="0.2"/>
<path d="M103.81 10.0778C103.81 15.4475 99.7372 19.8004 94.7136 19.8004C89.69 19.8004 85.6176 15.4475 85.6176 10.0778C85.6176 4.70811 89.69 0.355133 94.7136 0.355133C99.7372 0.355133 103.81 4.70811 103.81 10.0778Z" fill="white"/>
<path d="M103.81 10.0778C103.81 15.4475 99.7372 19.8004 94.7136 19.8004C89.69 19.8004 85.6176 15.4475 85.6176 10.0778C85.6176 4.70811 89.69 0.355133 94.7136 0.355133C99.7372 0.355133 103.81 4.70811 103.81 10.0778Z" fill="black" fill-opacity="0.2"/>
<path d="M144.237 10.0778C144.237 15.4475 140.164 19.8004 135.14 19.8004C130.117 19.8004 126.044 15.4475 126.044 10.0778C126.044 4.70811 130.117 0.355133 135.14 0.355133C140.164 0.355133 144.237 4.70811 144.237 10.0778Z" fill="white"/>
<path d="M144.237 10.0778C144.237 15.4475 140.164 19.8004 135.14 19.8004C130.117 19.8004 126.044 15.4475 126.044 10.0778C126.044 4.70811 130.117 0.355133 135.14 0.355133C140.164 0.355133 144.237 4.70811 144.237 10.0778Z" fill="black" fill-opacity="0.2"/>
<ellipse cx="54.2867" cy="10.0778" rx="9.09606" ry="9.72265" fill="#230540"/>
</g>
<defs>
<filter id="filter0_d_241_9" x="0.763672" y="0.355103" width="147.473" height="27.4453" filterUnits="userSpaceOnUse" color-interpolation-filters="sRGB">
<feFlood flood-opacity="0" result="BackgroundImageFix"/>
<feColorMatrix in="SourceAlpha" type="matrix" values="0 0 0 0 0 0 0 0 0 0 0 0 0 0 0 0 0 0 127 0" result="hardAlpha"/>
<feOffset dy="4"/>
<feGaussianBlur stdDeviation="2"/>
<feComposite in2="hardAlpha" operator="out"/>
<feColorMatrix type="matrix" values="0 0 0 0 0 0 0 0 0 0 0 0 0 0 0 0 0 0 0.25 0"/>
<feBlend mode="normal" in2="BackgroundImageFix" result="effect1_dropShadow_241_9"/>
<feBlend mode="normal" in="SourceGraphic" in2="effect1_dropShadow_241_9" result="shape"/>
</filter>
</defs>
</svg>
