<svg width="99" height="19" viewBox="0 0 99 19" fill="none" xmlns="http://www.w3.org/2000/svg">
<circle cx="9.23413" cy="9.9342" r="9" fill="white"/>
<circle cx="9.23413" cy="9.9342" r="9" fill="black" fill-opacity="0.2"/>
<path d="M98.2341 9.9342C98.2341 14.9048 94.2047 18.9342 89.2341 18.9342C84.2636 18.9342 80.2341 14.9048 80.2341 9.9342C80.2341 4.96364 84.2636 0.934204 89.2341 0.934204C94.2047 0.934204 98.2341 4.96364 98.2341 9.9342Z" fill="white"/>
<path d="M98.2341 9.9342C98.2341 14.9048 94.2047 18.9342 89.2341 18.9342C84.2636 18.9342 80.2341 14.9048 80.2341 9.9342C80.2341 4.96364 84.2636 0.934204 89.2341 0.934204C94.2047 0.934204 98.2341 4.96364 98.2341 9.9342Z" fill="black" fill-opacity="0.2"/>
<circle cx="49.2341" cy="9.9342" r="9" fill="#230540"/>
</svg>
