<svg width="31" height="31" viewBox="0 0 31 31" fill="none" xmlns="http://www.w3.org/2000/svg">
<path fill-rule="evenodd" clip-rule="evenodd" d="M27.7014 15.2746C27.7014 21.8745 22.3512 27.2247 15.7513 27.2247C9.15149 27.2247 3.80127 21.8745 3.80127 15.2746C3.80127 8.67481 9.15149 3.32458 15.7513 3.32458C22.3512 3.32458 27.7014 8.67481 27.7014 15.2746ZM17.2451 9.29961C17.2451 10.1246 16.5763 10.7934 15.7513 10.7934C14.9263 10.7934 14.2576 10.1246 14.2576 9.29961C14.2576 8.47463 14.9263 7.80586 15.7513 7.80586C16.5763 7.80586 17.2451 8.47463 17.2451 9.29961ZM14.2576 13.7809C13.4326 13.7809 12.7638 14.4497 12.7638 15.2746C12.7638 16.0996 13.4326 16.7684 14.2576 16.7684V21.2497C14.2576 22.0746 14.9263 22.7434 15.7513 22.7434H17.2451C18.0701 22.7434 18.7388 22.0746 18.7388 21.2497C18.7388 20.4247 18.0701 19.7559 17.2451 19.7559V15.2746C17.2451 14.4497 16.5763 13.7809 15.7513 13.7809H14.2576Z" fill="#393A40"/>
</svg>
