<svg width="101" height="101" viewBox="0 0 101 101" fill="none" xmlns="http://www.w3.org/2000/svg">
<path d="M74.7617 25.3914L53.3162 41.2595L57.3041 31.9079L74.7617 25.3914Z" fill="#E17726" stroke="#E17726" stroke-width="0.466799" stroke-linecap="round" stroke-linejoin="round"/>
<path d="M25.2944 25.3914L46.5491 41.4076L42.7521 31.9079L25.2944 25.3914Z" fill="#E27625" stroke="#E27625" stroke-width="0.466799" stroke-linecap="round" stroke-linejoin="round"/>
<path d="M67.0398 62.1819L61.3337 70.8988L73.5519 74.2629L77.052 62.3724L67.0398 62.1819Z" fill="#E27625" stroke="#E27625" stroke-width="0.466799" stroke-linecap="round" stroke-linejoin="round"/>
<path d="M23.0249 62.3724L26.5037 74.2629L38.7007 70.8988L33.0158 62.1819L23.0249 62.3724Z" fill="#E27625" stroke="#E27625" stroke-width="0.466799" stroke-linecap="round" stroke-linejoin="round"/>
<path d="M38.0431 47.4622L34.6492 52.5824L46.7401 53.1325L46.3371 40.1206L38.0431 47.4622Z" fill="#E27625" stroke="#E27625" stroke-width="0.466799" stroke-linecap="round" stroke-linejoin="round"/>
<path d="M62.0125 47.4569L53.5915 39.9672L53.3157 53.1272L65.4065 52.5771L62.0125 47.4569Z" fill="#E27625" stroke="#E27625" stroke-width="0.466799" stroke-linecap="round" stroke-linejoin="round"/>
<path d="M38.7004 70.8976L46.0186 67.3644L39.7187 62.4558L38.7004 70.8976Z" fill="#E27625" stroke="#E27625" stroke-width="0.466799" stroke-linecap="round" stroke-linejoin="round"/>
<path d="M54.0369 67.3644L61.3338 70.8976L60.3368 62.4558L54.0369 67.3644Z" fill="#E27625" stroke="#E27625" stroke-width="0.466799" stroke-linecap="round" stroke-linejoin="round"/>
<path d="M61.3338 70.9041L54.0369 67.3708L54.6307 72.1101L54.567 74.1201L61.3338 70.9041Z" fill="#D5BFB2" stroke="#D5BFB2" stroke-width="0.466799" stroke-linecap="round" stroke-linejoin="round"/>
<path d="M38.7004 70.9041L45.4884 74.1201L45.4459 72.1101L46.0186 67.3708L38.7004 70.9041Z" fill="#D5BFB2" stroke="#D5BFB2" stroke-width="0.466799" stroke-linecap="round" stroke-linejoin="round"/>
<path d="M45.616 59.3291L39.5493 57.5519L43.8342 55.5842L45.616 59.3291Z" fill="#233447" stroke="#233447" stroke-width="0.466799" stroke-linecap="round" stroke-linejoin="round"/>
<path d="M54.4402 59.3291L56.2221 55.5842L60.5281 57.5519L54.4402 59.3291Z" fill="#233447" stroke="#233447" stroke-width="0.466799" stroke-linecap="round" stroke-linejoin="round"/>
<path d="M38.7002 70.8988L39.7609 62.1819L33.0154 62.3724L38.7002 70.8988Z" fill="#CC6228" stroke="#CC6228" stroke-width="0.466799" stroke-linecap="round" stroke-linejoin="round"/>
<path d="M60.2944 62.1819L61.3339 70.8988L67.0399 62.3724L60.2944 62.1819Z" fill="#CC6228" stroke="#CC6228" stroke-width="0.466799" stroke-linecap="round" stroke-linejoin="round"/>
<path d="M65.4065 52.576L53.3157 53.1261L54.4399 59.3255L56.2218 55.5804L60.5278 57.5481L65.4065 52.576Z" fill="#CC6228" stroke="#CC6228" stroke-width="0.466799" stroke-linecap="round" stroke-linejoin="round"/>
<path d="M39.5492 57.5481L43.834 55.5804L45.6159 59.3255L46.7401 53.1261L34.6492 52.576L39.5492 57.5481Z" fill="#CC6228" stroke="#CC6228" stroke-width="0.466799" stroke-linecap="round" stroke-linejoin="round"/>
<path d="M34.6492 52.576L39.7189 62.4567L39.5491 57.5481L34.6492 52.576Z" fill="#E27525" stroke="#E27525" stroke-width="0.466799" stroke-linecap="round" stroke-linejoin="round"/>
<path d="M60.5278 57.5481L60.3369 62.4567L65.4066 52.576L60.5278 57.5481Z" fill="#E27525" stroke="#E27525" stroke-width="0.466799" stroke-linecap="round" stroke-linejoin="round"/>
<path d="M46.7401 53.1294L45.6157 59.3287L47.0369 66.6491L47.3552 57.0013L46.7401 53.1294Z" fill="#E27525" stroke="#E27525" stroke-width="0.466799" stroke-linecap="round" stroke-linejoin="round"/>
<path d="M53.3157 53.1294L52.7217 56.9802L53.0187 66.6491L54.4399 59.3287L53.3157 53.1294Z" fill="#E27525" stroke="#E27525" stroke-width="0.466799" stroke-linecap="round" stroke-linejoin="round"/>
<path d="M54.44 59.3288L53.0188 66.6492L54.037 67.3687L60.3371 62.4601L60.528 57.5515L54.44 59.3288Z" fill="#F5841F" stroke="#F5841F" stroke-width="0.466799" stroke-linecap="round" stroke-linejoin="round"/>
<path d="M39.5493 57.5515L39.7191 62.4601L46.019 67.3687L47.0372 66.6492L45.616 59.3288L39.5493 57.5515Z" fill="#F5841F" stroke="#F5841F" stroke-width="0.466799" stroke-linecap="round" stroke-linejoin="round"/>
<path d="M54.5672 74.1214L54.6307 72.1114L54.0793 71.6459H45.9763L45.4459 72.1114L45.4884 74.1214L38.7004 70.9054L41.0762 72.8519L45.8914 76.1737H54.1428L58.9792 72.8519L61.3337 70.9054L54.5672 74.1214Z" fill="#C0AC9D" stroke="#C0AC9D" stroke-width="0.466799" stroke-linecap="round" stroke-linejoin="round"/>
<path d="M54.0372 67.367L53.019 66.6477H47.0371L46.0191 67.367L45.4463 72.1064L45.9766 71.6409H54.0796L54.6312 72.1064L54.0372 67.367Z" fill="#161616" stroke="#161616" stroke-width="0.466799" stroke-linecap="round" stroke-linejoin="round"/>
<path d="M75.6731 42.2962L77.4763 33.537L74.761 25.3914L54.0369 40.7307L62.0125 47.4587L73.2762 50.7382L75.758 47.8396L74.6763 47.0567L76.3944 45.4912L75.0793 44.4755L76.7975 43.1637L75.6731 42.2962Z" fill="#763E1A" stroke="#763E1A" stroke-width="0.466799" stroke-linecap="round" stroke-linejoin="round"/>
<path d="M22.5793 33.537L24.4036 42.2962L23.2369 43.1637L24.9763 44.4755L23.6612 45.4912L25.3793 47.0567L24.2975 47.8396L26.7794 50.7382L38.0431 47.4587L46.0187 40.7307L25.2945 25.3914L22.5793 33.537Z" fill="#763E1A" stroke="#763E1A" stroke-width="0.466799" stroke-linecap="round" stroke-linejoin="round"/>
<path d="M73.2763 50.7372L62.0127 47.4579L65.4066 52.5781L60.3369 62.4586L67.0399 62.374H77.052L73.2763 50.7372Z" fill="#F5841F" stroke="#F5841F" stroke-width="0.466799" stroke-linecap="round" stroke-linejoin="round"/>
<path d="M38.043 47.4579L26.7794 50.7372L23.0249 62.374H33.0158L39.7188 62.4586L34.6492 52.5781L38.043 47.4579Z" fill="#F5841F" stroke="#F5841F" stroke-width="0.466799" stroke-linecap="round" stroke-linejoin="round"/>
<path d="M53.3156 53.1278L54.0368 40.7294L57.3034 31.9067H42.752L46.0186 40.7294L46.7398 53.1278L47.0156 57.0208L47.0368 66.6475H53.0186L53.0398 57.0208L53.3156 53.1278Z" fill="#F5841F" stroke="#F5841F" stroke-width="0.466799" stroke-linecap="round" stroke-linejoin="round"/>
</svg>
