<svg width="143" height="84" viewBox="0 0 143 84" fill="none" xmlns="http://www.w3.org/2000/svg">
<path d="M16.4722 25.5072C-1.84152 32.3915 -1.43806 44.0508 3.91221 48.188C8.42046 51.671 14.9285 51.4094 20.7524 50.9679C29.8215 50.2811 46.995 50.461 55.5554 51.4748C61.2565 52.1453 65.2561 57.6887 66.2735 62.9542C67.2734 68.2197 63.5896 82.9205 72.1676 83.918C80.6754 84.9155 80.0263 69.4952 80.2017 65.4398C80.3771 61.3844 80.2017 50.9679 85.552 50.9679C90.9023 50.9679 90.8321 63.3794 90.6742 66.6662C90.376 72.9455 98.3926 74.4336 99.0417 66.3064C99.2697 63.3794 95.7263 53.4698 101.094 53.4698C106.462 53.4698 102.094 64.3932 105.322 65.914C110.725 68.4486 110.742 60.3705 112.338 57.9667C118.232 49.0874 135.599 58.1302 141.195 49.071C144.387 43.92 140.704 37.2318 135.704 33.5362C130.705 29.8406 124.425 27.7802 119.741 23.7411C113.812 18.6555 110.882 10.8554 104.269 6.55472C95.621 0.913132 75.7812 -0.493176 65.7472 2.54837C45.9249 8.53336 33.0843 19.2769 16.4722 25.5072Z" fill="white"/>
<mask id="mask0_309_520" style="mask-type:luminance" maskUnits="userSpaceOnUse" x="0" y="0" width="143" height="84">
<path d="M16.4722 25.5072C-1.84152 32.3915 -1.43806 44.0508 3.91221 48.188C8.42046 51.671 14.9285 51.4094 20.7524 50.9679C29.8215 50.2811 46.995 50.461 55.5554 51.4748C61.2565 52.1453 65.2561 57.6887 66.2735 62.9542C67.2734 68.2197 63.5896 82.9205 72.1676 83.918C80.6754 84.9155 80.0263 69.4952 80.2017 65.4398C80.3771 61.3844 80.2017 50.9679 85.552 50.9679C90.9023 50.9679 90.8321 63.3794 90.6742 66.6662C90.376 72.9455 98.3926 74.4336 99.0417 66.3064C99.2697 63.3794 95.7263 53.4698 101.094 53.4698C106.462 53.4698 102.094 64.3932 105.322 65.914C110.725 68.4486 110.742 60.3705 112.338 57.9667C118.232 49.0874 135.599 58.1302 141.195 49.071C144.387 43.92 140.704 37.2318 135.704 33.5362C130.705 29.8406 124.425 27.7802 119.741 23.7411C113.812 18.6555 110.882 10.8554 104.269 6.55472C95.621 0.913132 75.7812 -0.493176 65.7472 2.54837C45.9249 8.53336 33.0843 19.2769 16.4722 25.5072Z" fill="white"/>
</mask>
<g mask="url(#mask0_309_520)">
<path opacity="0.3" d="M148.141 37.052C146.212 25.9651 134.546 16.497 125.67 9.82523C120.267 5.75348 113.426 11.951 118.004 16.9712C122.951 22.4166 129.459 26.5701 133.915 32.4406C139.142 39.325 137.353 47.6157 127.372 48.5314C121.934 49.022 116.215 47.9918 111.128 50.3629C111.128 50.3629 111.128 50.3629 111.11 50.3629C110.023 50.8698 108.725 50.8044 107.813 50.0358C105.655 48.2371 102.497 47.7301 99.6381 48.6786C98.761 48.9729 98.0067 49.3654 97.3401 49.8396C96.0946 50.739 94.2878 50.4773 93.3406 49.3C92.5512 48.3188 91.4636 47.5012 90.0076 46.8635C81.5349 43.1515 75.9741 50.1503 74.9567 57.1164C74.3603 61.2536 74.7813 65.3581 74.8865 69.4952C74.9392 71.3594 75.6935 74.5645 74.2726 76.1016C71.8518 78.7343 71.2027 76.0035 70.8344 73.4198C69.624 64.8511 74.5182 56.2661 65.9753 49.7088C57.8534 43.4622 43.3989 45.1955 33.7509 45.866C26.4184 46.3729 18.0158 47.7465 11.2798 44.1653C3.29823 39.93 5.01734 33.9778 9.59576 28.0255C10.7711 26.5047 9.17476 24.5424 7.42057 24.4934C-0.35047 24.2808 -4.96398 31.0343 -4.64822 37.8369C-4.29739 45.6697 2.45623 51.7692 9.73609 54.7453C19.9981 58.9316 31.5406 56.2334 42.3113 56.168C46.7494 56.1516 51.9418 55.6611 56.1869 57.002C61.239 58.5881 60.011 63.0197 59.7128 67.1405C59.2392 73.894 59.362 81.0237 65.028 86.1093C70.9221 91.4075 78.9387 88.5948 83.2014 82.8715C84.3416 81.3507 85.0783 79.7482 85.552 78.0966C86.0958 76.1834 88.6393 75.5456 90.2532 76.8374C92.2354 78.4236 94.8141 78.996 98.1821 77.557C99.7784 76.8865 101.34 75.006 102.603 72.7003C103.146 71.6864 104.357 71.1141 105.55 71.2776C107.497 71.5393 109.567 71.1141 111.374 69.9694C113.145 68.8411 114.198 67.2549 114.899 65.3908C115.461 63.919 115.391 60.3542 116.145 59.6184C118.11 57.7378 127.968 59.2422 131.266 58.6372C142.195 56.6586 149.948 47.5503 148.124 37.0684L148.141 37.052Z" fill="#336EC2"/>
<path opacity="0.15" d="M140.879 13.259C137.458 11.2803 119.443 21.4025 122.846 23.1195C132.09 27.7963 140.511 43.1512 125.056 44.4594C118.355 45.0317 104.655 39.7826 98.147 38.6543C88.9902 37.0681 79.6228 35.6291 70.4309 36.5939C53.9591 38.3109 39.3643 39.8971 22.8749 38.7197C22.1557 38.6706 21.2961 38.6379 20.3489 38.6052C18.5947 38.5398 16.8756 37.9675 15.5249 36.9209C15.5073 36.9046 15.4722 36.8882 15.4547 36.8719C12.4024 34.5008 11.5078 30.4781 13.4374 27.2403C13.8584 26.5371 14.2794 25.8503 14.7355 25.1472C21.9101 13.7986 6.75394 -2.61923 -5.84111 5.98214C-15.454 12.5395 -22.6637 23.1685 -21.4007 34.0102C-21.6814 36.8228 -21.5586 39.6845 -20.9096 42.5625C-18.4712 53.2243 -9.91082 60.6319 0.772173 64.2949C2.50882 64.8836 4.29809 65.3741 6.12244 65.7666C7.08724 65.9792 8.01696 66.3389 8.84143 66.8458C11.6657 68.5956 14.4548 70.2308 17.1036 71.7516C30.1548 79.2737 45.0478 85.7002 60.3794 87.4172C72.1149 88.7254 84.096 84.5882 95.7087 84.6863C97.112 84.6863 98.4978 85.0297 99.7258 85.6675C105.304 88.5455 112.917 88.4964 118.373 83.9832C119.145 83.3454 119.916 82.7077 120.688 82.0536C123.495 79.7315 124.968 77.0007 125.407 74.2208C125.828 71.4899 127.916 69.2169 130.705 68.3176C132.722 67.6635 134.669 66.8458 136.546 65.8156C154.702 55.9224 160.666 24.673 140.879 13.259Z" fill="#336EC2"/>
</g>
<g opacity="0.35">
<path d="M30.1548 32.8662C31.5757 32.8662 31.5757 30.8221 30.1548 30.8221C28.7339 30.8221 28.7339 32.8662 30.1548 32.8662Z" fill="#336EC2"/>
</g>
<g opacity="0.35">
<path d="M38.803 29.8729C39.4345 29.8729 39.4345 28.9415 38.803 28.9415C38.1715 28.9415 38.1715 29.8729 38.803 29.8729Z" fill="#336EC2"/>
</g>
<g opacity="0.35">
<path d="M82.7804 12.2454C83.5171 12.6542 84.2364 13.0466 84.9731 13.4554L85.0784 13.2919C85.0784 13.2919 85.1135 13.2429 85.131 13.2265L85.2538 12.9649C85.3064 12.8177 85.3064 12.6705 85.2713 12.5234C85.2713 12.4252 85.2362 12.3271 85.1836 12.2454C85.131 12.0982 85.0433 11.9837 84.938 11.8856L84.6925 11.7057L84.4118 11.5913C84.2539 11.5422 84.096 11.5422 83.9382 11.5749C83.7803 11.5749 83.6224 11.624 83.4821 11.7057C83.4645 11.7057 83.447 11.7221 83.4119 11.7384L83.3417 11.7711L83.254 11.8202H83.2365C83.0961 11.902 82.9733 12.0001 82.8856 12.1309C82.7804 12.2454 82.6927 12.3762 82.6576 12.5397C82.605 12.7032 82.605 12.8504 82.6401 13.0139C82.6401 13.1775 82.6927 13.3246 82.7979 13.4554L82.9909 13.7007C83.1488 13.8479 83.3417 13.946 83.5522 14.0114L83.8855 14.0605C84.1136 14.0605 84.3241 14.0114 84.5346 13.897C84.7275 13.7825 84.8854 13.6517 84.9907 13.4718C85.1135 13.2919 85.1661 13.0793 85.1661 12.8668L85.1135 12.5561C85.0608 12.3598 84.938 12.18 84.7802 12.0328C84.6574 11.9183 84.5346 11.8366 84.3767 11.7875C84.2188 11.7057 84.0609 11.673 83.8855 11.6894C83.6575 11.6894 83.447 11.7384 83.2365 11.8529C83.0435 11.951 82.8856 12.0982 82.7804 12.2781V12.2454Z" fill="#336EC2"/>
</g>
<g opacity="0.35">
<path d="M127.46 34.2388C128.056 34.2388 128.056 33.3728 127.46 33.3728C126.863 33.3728 126.863 34.2388 127.46 34.2388Z" fill="#336EC2"/>
</g>
<g opacity="0.35">
<path d="M115.917 35.0081C117.198 35.0081 117.198 33.1603 115.917 33.1603C114.636 33.1603 114.636 35.0081 115.917 35.0081Z" fill="#336EC2"/>
</g>
<g opacity="0.15">
<path d="M33.0668 28.2547C33.9438 28.2547 33.9438 26.9956 33.0668 26.9956C32.1897 26.9956 32.1897 28.2547 33.0668 28.2547Z" fill="#336EC2"/>
</g>
<g opacity="0.15">
<path d="M79.465 6.94724C80.6228 6.94724 80.6228 5.26294 79.465 5.26294C78.3072 5.26294 78.3072 6.94724 79.465 6.94724Z" fill="#336EC2"/>
</g>
<g opacity="0.15">
<path d="M88.3061 8.27115C88.9727 8.27115 88.9727 7.30713 88.3061 7.30713C87.6395 7.30713 87.6395 8.27115 88.3061 8.27115Z" fill="#336EC2"/>
</g>
<g opacity="0.15">
<path d="M126.67 39.8477C127.266 39.8477 127.266 38.9817 126.67 38.9817C126.074 38.9817 126.074 39.8477 126.67 39.8477Z" fill="#336EC2"/>
</g>
<g opacity="0.15">
<path d="M102.76 18.5566C103.41 18.5566 103.41 17.6089 102.76 17.6089C102.111 17.6089 102.111 18.5566 102.76 18.5566Z" fill="#336EC2"/>
</g>
</svg>
