<svg width="130" height="82" viewBox="0 0 130 82" fill="none" xmlns="http://www.w3.org/2000/svg">
<path d="M14.8547 24.4396C-1.81932 31.159 -1.45198 42.5389 3.41926 46.5769C7.52388 49.9765 13.4492 49.7212 18.7517 49.2902C27.0088 48.6199 42.6447 48.7955 50.4387 49.785C55.6294 50.4394 59.2708 55.85 60.1971 60.9894C61.1075 66.1287 57.7535 80.4772 65.5635 81.4508C73.3096 82.4244 72.7186 67.3736 72.8783 63.4154C73.038 59.4571 72.8783 49.2902 77.7496 49.2902C82.6208 49.2902 82.5569 61.4043 82.4132 64.6124C82.1417 70.7413 89.4406 72.1937 90.0315 64.2613C90.2391 61.4043 87.0129 51.7322 91.9001 51.7322C96.7873 51.7322 92.8105 62.3939 95.7492 63.8782C100.668 66.3521 100.684 58.4676 102.138 56.1214C107.504 47.4548 123.316 56.281 128.41 47.4388C131.317 42.4112 127.963 35.8833 123.411 32.2763C118.86 28.6692 113.142 26.6581 108.878 22.7159C103.479 17.7521 100.812 10.1389 94.7909 5.94128C86.9171 0.434873 68.8536 -0.937738 59.718 2.03093C41.6705 7.87251 29.9795 18.3586 14.8547 24.4396Z" fill="white"/>
<mask id="mask0_221_97" style="mask-type:luminance" maskUnits="userSpaceOnUse" x="0" y="0" width="130" height="82">
<path d="M14.8547 24.4396C-1.81932 31.159 -1.45198 42.5389 3.41926 46.5769C7.52388 49.9765 13.4492 49.7212 18.7517 49.2902C27.0088 48.6199 42.6447 48.7955 50.4387 49.785C55.6294 50.4394 59.2708 55.85 60.1971 60.9894C61.1075 66.1287 57.7535 80.4772 65.5635 81.4508C73.3096 82.4244 72.7186 67.3736 72.8783 63.4154C73.038 59.4571 72.8783 49.2902 77.7496 49.2902C82.6208 49.2902 82.5569 61.4043 82.4132 64.6124C82.1417 70.7413 89.4406 72.1937 90.0315 64.2613C90.2391 61.4043 87.0129 51.7322 91.9001 51.7322C96.7873 51.7322 92.8105 62.3939 95.7492 63.8782C100.668 66.3521 100.684 58.4676 102.138 56.1214C107.504 47.4548 123.316 56.281 128.41 47.4388C131.317 42.4112 127.963 35.8833 123.411 32.2763C118.86 28.6692 113.142 26.6581 108.878 22.7159C103.479 17.7521 100.812 10.1389 94.7909 5.94128C86.9171 0.434873 68.8536 -0.937738 59.718 2.03093C41.6705 7.87251 29.9795 18.3586 14.8547 24.4396Z" fill="white"/>
</mask>
<g mask="url(#mask0_221_97)">
<path opacity="0.3" d="M134.735 35.7077C132.978 24.8864 122.357 15.6453 114.276 9.13334C109.357 5.15916 103.128 11.2082 107.296 16.1081C111.8 21.423 117.726 25.477 121.782 31.2068C126.542 37.9263 124.913 46.0183 115.825 46.9121C110.874 47.3909 105.667 46.3854 101.036 48.6996C101.036 48.6996 101.036 48.6996 101.02 48.6996C100.029 49.1944 98.8476 49.1306 98.0171 48.3804C96.0526 46.6248 93.1778 46.13 90.5744 47.0557C89.7759 47.343 89.0891 47.7261 88.4822 48.1889C87.3482 49.0667 85.7032 48.8114 84.8407 47.6622C84.122 46.7046 83.1318 45.9065 81.8062 45.2841C74.0921 41.661 69.0292 48.4922 68.1029 55.2914C67.5598 59.3294 67.9431 63.3355 68.039 67.3735C68.0869 69.1931 68.7736 72.3213 67.48 73.8216C65.2759 76.3913 64.685 73.7259 64.3496 71.2041C63.2476 62.8407 67.7036 54.4614 59.9256 48.0612C52.5308 41.9643 39.3705 43.6561 30.5863 44.3105C23.9103 44.8053 16.2601 46.146 10.1271 42.6506C2.86018 38.5168 4.42537 32.7071 8.59387 26.8975C9.66395 25.4132 8.21056 23.4979 6.61343 23.45C-0.461844 23.2425 -4.66229 29.8342 -4.37481 36.4738C-4.05538 44.119 2.09356 50.0723 8.72164 52.9771C18.0648 57.063 28.5739 54.4295 38.3803 54.3657C42.421 54.3497 47.1485 53.8709 51.0136 55.1796C55.6133 56.7278 54.4953 61.0531 54.2238 65.0752C53.7926 71.6669 53.9044 78.6258 59.0631 83.5895C64.4295 88.7607 71.7283 86.0155 75.6093 80.4293C76.6475 78.945 77.3183 77.3808 77.7495 75.7688C78.2446 73.9014 80.5604 73.279 82.0298 74.5398C83.8346 76.088 86.1823 76.6466 89.2488 75.2421C90.7022 74.5877 92.1236 72.7523 93.2736 70.5018C93.7687 69.5123 94.8707 68.9536 95.9568 69.1132C97.7296 69.3686 99.6142 68.9536 101.259 67.8364C102.872 66.7351 103.831 65.1869 104.469 63.3674C104.981 61.931 104.917 58.4516 105.603 57.7333C107.392 55.8979 116.368 57.3662 119.371 56.7757C129.321 54.8445 136.38 45.9544 134.719 35.7237L134.735 35.7077Z" fill="#336EC2"/>
<path opacity="0.15" d="M128.123 12.4851C125.009 10.5539 108.606 20.4335 111.704 22.1093C120.121 26.6741 127.788 41.661 113.717 42.9379C107.616 43.4965 95.1422 38.3732 89.2169 37.2719C80.8799 35.7237 72.3512 34.3192 63.9823 35.2609C48.9853 36.9367 35.6972 38.4849 20.6842 37.3357C20.0293 37.2878 19.2467 37.2559 18.3843 37.224C16.7872 37.1602 15.222 36.6015 13.9922 35.5801C13.9762 35.5641 13.9443 35.5481 13.9283 35.5322C11.1493 33.2179 10.3348 29.2916 12.0916 26.1314C12.4749 25.4451 12.8582 24.7747 13.2735 24.0884C19.8057 13.0118 6.00655 -3.01265 -5.46083 5.38262C-14.2131 11.7828 -20.7773 22.1572 -19.6274 32.7391C-19.8829 35.4843 -19.7711 38.2774 -19.1802 41.0865C-16.9601 51.4928 -9.16617 58.7229 0.560343 62.2981C2.1415 62.8727 3.77057 63.3515 5.43158 63.7345C6.31 63.942 7.15648 64.2932 7.90713 64.7879C10.4785 66.4957 13.0179 68.0918 15.4296 69.5761C27.3122 76.918 40.8718 83.1905 54.8307 84.8664C65.5155 86.1432 76.4239 82.1052 86.9969 82.201C88.2746 82.201 89.5363 82.5361 90.6543 83.1586C95.7332 85.9677 102.665 85.9198 107.632 81.5146C108.335 80.8922 109.037 80.2697 109.74 79.6313C112.295 77.3649 113.637 74.6995 114.036 71.9862C114.42 69.3208 116.32 67.1022 118.86 66.2244C120.696 65.586 122.469 64.7879 124.178 63.7824C140.708 54.1263 146.139 23.6256 128.123 12.4851Z" fill="#336EC2"/>
</g>
<g opacity="0.35">
<path d="M27.3123 31.6218C28.606 31.6218 28.606 29.6267 27.3123 29.6267C26.0186 29.6267 26.0186 31.6218 27.3123 31.6218Z" fill="#336EC2"/>
</g>
<g opacity="0.35">
<path d="M35.1861 28.701C35.7611 28.701 35.7611 27.7913 35.1861 27.7913C34.6111 27.7913 34.6111 28.701 35.1861 28.701Z" fill="#336EC2"/>
</g>
<g opacity="0.35">
<path d="M75.2261 11.4955C75.8969 11.8945 76.5517 12.2775 77.2225 12.6766L77.3183 12.517C77.3183 12.517 77.3503 12.4691 77.3662 12.4531L77.478 12.1977C77.5259 12.0541 77.5259 11.9105 77.494 11.7668C77.494 11.671 77.4621 11.5753 77.4141 11.4955C77.3662 11.3518 77.2864 11.2401 77.1905 11.1443L76.967 10.9688L76.7114 10.8571C76.5677 10.8092 76.4239 10.8092 76.2802 10.8411C76.1364 10.8411 75.9927 10.889 75.8649 10.9688C75.849 10.9688 75.833 10.9847 75.8011 11.0007L75.7372 11.0326L75.6573 11.0805H75.6413C75.5136 11.1603 75.4018 11.2561 75.3219 11.3838C75.2261 11.4955 75.1462 11.6232 75.1143 11.7828C75.0664 11.9424 75.0664 12.086 75.0983 12.2456C75.0983 12.4052 75.1462 12.5489 75.2421 12.6766L75.4177 12.916C75.5615 13.0596 75.7372 13.1554 75.9288 13.2192L76.2323 13.2671C76.4399 13.2671 76.6316 13.2192 76.8232 13.1075C76.9989 12.9958 77.1426 12.8681 77.2385 12.6925C77.3503 12.517 77.3982 12.3095 77.3982 12.102L77.3503 11.7987C77.3023 11.6072 77.1905 11.4316 77.0468 11.288C76.935 11.1763 76.8232 11.0965 76.6795 11.0486C76.5357 10.9688 76.392 10.9369 76.2323 10.9528C76.0246 10.9528 75.833 11.0007 75.6413 11.1124C75.4656 11.2082 75.3219 11.3518 75.2261 11.5274V11.4955Z" fill="#336EC2"/>
</g>
<g opacity="0.35">
<path d="M115.905 32.9624C116.448 32.9624 116.448 32.1165 115.905 32.1165C115.362 32.1165 115.362 32.9624 115.905 32.9624Z" fill="#336EC2"/>
</g>
<g opacity="0.35">
<path d="M105.396 33.7127C106.562 33.7127 106.562 31.9092 105.396 31.9092C104.23 31.9092 104.23 33.7127 105.396 33.7127Z" fill="#336EC2"/>
</g>
<g opacity="0.15">
<path d="M29.9635 27.1211C30.7621 27.1211 30.7621 25.8921 29.9635 25.8921C29.165 25.8921 29.165 27.1211 29.9635 27.1211Z" fill="#336EC2"/>
</g>
<g opacity="0.15">
<path d="M72.2076 6.32436C73.2617 6.32436 73.2617 4.68042 72.2076 4.68042C71.1535 4.68042 71.1535 6.32436 72.2076 6.32436Z" fill="#336EC2"/>
</g>
<g opacity="0.15">
<path d="M80.2571 7.61721C80.864 7.61721 80.864 6.67554 80.2571 6.67554C79.6502 6.67554 79.6502 7.61721 80.2571 7.61721Z" fill="#336EC2"/>
</g>
<g opacity="0.15">
<path d="M115.186 38.437C115.729 38.437 115.729 37.5911 115.186 37.5911C114.643 37.5911 114.643 38.437 115.186 38.437Z" fill="#336EC2"/>
</g>
<g opacity="0.15">
<path d="M93.4174 17.6564C94.0084 17.6564 94.0084 16.7307 93.4174 16.7307C92.8265 16.7307 92.8265 17.6564 93.4174 17.6564Z" fill="#336EC2"/>
</g>
</svg>
