<svg width="197" height="36" viewBox="0 0 197 36" fill="none" xmlns="http://www.w3.org/2000/svg">
<path d="M36 17.8943C36 27.2699 28.1784 34.8943 18.5 34.8943C8.82165 34.8943 1 27.2699 1 17.8943C1 8.51863 8.82165 0.894287 18.5 0.894287C28.1784 0.894287 36 8.51863 36 17.8943Z" stroke="#3E207C"/>
<path d="M90 17.8943C90 27.2699 82.1784 34.8943 72.5 34.8943C62.8216 34.8943 55 27.2699 55 17.8943C55 8.51863 62.8216 0.894287 72.5 0.894287C82.1784 0.894287 90 8.51863 90 17.8943Z" stroke="#3E207C"/>
<path d="M142 17.8943C142 27.2699 134.178 34.8943 124.5 34.8943C114.822 34.8943 107 27.2699 107 17.8943C107 8.51863 114.822 0.894287 124.5 0.894287C134.178 0.894287 142 8.51863 142 17.8943Z" stroke="#3E207C"/>
<path d="M196 17.8943C196 27.2573 187.968 34.8943 178 34.8943C168.032 34.8943 160 27.2573 160 17.8943C160 8.53126 168.032 0.894287 178 0.894287C187.968 0.894287 196 8.53126 196 17.8943Z" stroke="#3E207C"/>
<path d="M10.5032 26.2306L11.5848 22.0111C10.8721 20.7141 10.4977 19.2389 10.5 17.7373C10.5 13.0465 14.0816 9.24402 18.5 9.24402C22.9184 9.24402 26.5 13.0465 26.5 17.7373C26.5 22.4281 22.9184 26.2306 18.5 26.2306C17.0862 26.233 15.6973 25.8358 14.476 25.0797L10.5032 26.2306ZM15.6128 13.7522C15.5095 13.7591 15.4085 13.7879 15.316 13.8372C15.2292 13.8894 15.15 13.9546 15.0808 14.0308C14.9848 14.1268 14.9304 14.21 14.872 14.2907C14.5763 14.6992 14.4173 15.2007 14.42 15.7159C14.4216 16.1321 14.524 16.5372 14.684 16.916C15.0112 17.6821 15.5496 18.4932 16.2608 19.2448C16.432 19.4258 16.5992 19.6075 16.7792 19.7765C17.6619 20.6016 18.7138 21.1966 19.8512 21.5142L20.3064 21.5881C20.4544 21.5966 20.6024 21.5847 20.7512 21.5771C20.9842 21.5643 21.2117 21.4974 21.4176 21.3809C21.5224 21.3236 21.6246 21.2613 21.724 21.1941C21.724 21.1941 21.7584 21.1703 21.824 21.1176C21.932 21.0327 21.9984 20.9724 22.088 20.873C22.1544 20.8 22.212 20.7142 22.256 20.6165C22.3184 20.4781 22.3808 20.2139 22.4064 19.994C22.4256 19.8258 22.42 19.7341 22.4176 19.6772C22.4144 19.5863 22.3432 19.492 22.2656 19.4521L21.8 19.2304C21.8 19.2304 21.104 18.9085 20.6792 18.703C20.6344 18.6822 20.5864 18.6704 20.5376 18.6682C20.4829 18.6622 20.4276 18.6687 20.3754 18.6873C20.3232 18.7059 20.2754 18.7362 20.2352 18.776V18.7743C20.2312 18.7743 20.1776 18.8227 19.5992 19.5667C19.566 19.6141 19.5203 19.6499 19.4678 19.6696C19.4154 19.6892 19.3587 19.6919 19.3048 19.6772C19.2527 19.6624 19.2016 19.6436 19.152 19.6211C19.0528 19.5769 19.0184 19.5599 18.9504 19.5285L18.9464 19.5268C18.4887 19.3147 18.065 19.0281 17.6904 18.6775C17.5896 18.5841 17.496 18.4822 17.4 18.3836C17.0853 18.0636 16.811 17.7016 16.584 17.3067L16.5368 17.226C16.5029 17.1718 16.4755 17.1133 16.4552 17.0519C16.4248 16.927 16.504 16.8268 16.504 16.8268C16.504 16.8268 16.6984 16.6009 16.7888 16.4786C16.8641 16.3769 16.9343 16.2712 16.9992 16.1618C17.0936 16.0004 17.1232 15.8348 17.0736 15.7065C16.8496 15.1256 16.6176 14.5472 16.3792 13.9731C16.332 13.8593 16.192 13.7777 16.0648 13.7616C16.0216 13.7565 15.9784 13.7514 15.9352 13.748C15.8278 13.7423 15.7201 13.7435 15.6128 13.7514V13.7522Z" fill="#3E207C"/>
<path d="M75.9103 18.2364L76.3771 15.3432H73.4589V13.4657C73.4589 12.6743 73.8664 11.9024 75.1735 11.9024H76.5V9.43936C76.5 9.43936 75.2964 9.24402 74.1452 9.24402C71.7422 9.24402 70.1714 10.6299 70.1714 13.1384V15.3437H67.5V18.2369H70.1714V25.2314H73.4589V18.2369L75.9103 18.2364Z" fill="#3E207C"/>
<path d="M124.998 14.572C123.621 14.572 122.497 15.7699 122.497 17.2377C122.497 18.7055 123.621 19.9034 124.998 19.9034C126.375 19.9034 127.499 18.7055 127.499 17.2377C127.499 15.7699 126.375 14.572 124.998 14.572ZM132.499 17.2377C132.499 16.1338 132.509 15.0399 132.45 13.9381C132.392 12.6582 132.118 11.5224 131.24 10.5865C130.36 9.64857 129.296 9.3586 128.096 9.29661C127.06 9.23461 126.034 9.24461 125 9.24461C123.964 9.24461 122.938 9.23461 121.904 9.29661C120.703 9.3586 119.638 9.65057 118.76 10.5865C117.88 11.5244 117.608 12.6582 117.549 13.9381C117.491 15.0419 117.501 16.1358 117.501 17.2377C117.501 18.3396 117.491 19.4354 117.549 20.5373C117.608 21.8172 117.881 22.953 118.76 23.8889C119.639 24.8268 120.703 25.1168 121.904 25.1788C122.94 25.2408 123.966 25.2308 125 25.2308C126.036 25.2308 127.062 25.2408 128.096 25.1788C129.296 25.1168 130.362 24.8248 131.24 23.8889C132.12 22.951 132.392 21.8172 132.45 20.5373C132.51 19.4354 132.499 18.3416 132.499 17.2377ZM124.998 21.3392C122.868 21.3392 121.15 19.5074 121.15 17.2377C121.15 14.968 122.868 13.1362 124.998 13.1362C127.128 13.1362 128.846 14.968 128.846 17.2377C128.846 19.5074 127.128 21.3392 124.998 21.3392ZM129.004 13.9261C128.507 13.9261 128.105 13.4981 128.105 12.9682C128.105 12.4382 128.507 12.0103 129.004 12.0103C129.501 12.0103 129.902 12.4382 129.902 12.9682C129.903 13.094 129.879 13.2187 129.834 13.3349C129.789 13.4512 129.723 13.5569 129.64 13.6459C129.556 13.7348 129.457 13.8054 129.348 13.8535C129.239 13.9016 129.122 13.9262 129.004 13.9261Z" fill="#3E207C"/>
<path d="M187.103 12.4284C186.995 12.0053 186.783 11.6194 186.489 11.3094C186.194 10.9994 185.827 10.7762 185.424 10.662C183.942 10.2432 178 10.2432 178 10.2432C178 10.2432 172.058 10.2432 170.576 10.6598C170.173 10.7736 169.806 10.9967 169.511 11.3067C169.216 11.6168 169.004 12.0029 168.897 12.4262C168.5 13.9855 168.5 17.2377 168.5 17.2377C168.5 17.2377 168.5 20.4899 168.897 22.0469C169.115 22.9068 169.76 23.5839 170.576 23.8134C172.058 24.2322 178 24.2322 178 24.2322C178 24.2322 183.942 24.2322 185.424 23.8134C186.243 23.5839 186.885 22.9068 187.103 22.0469C187.5 20.4899 187.5 17.2377 187.5 17.2377C187.5 17.2377 187.5 13.9855 187.103 12.4284ZM176.113 20.2226V14.2528L181.032 17.2154L176.113 20.2226Z" fill="#3E207C"/>
</svg>
