<svg width="197" height="36" viewBox="0 0 197 36" fill="none" xmlns="http://www.w3.org/2000/svg">
<path d="M36 17.9825C36 27.535 28.1701 35.2881 18.5 35.2881C8.82989 35.2881 1 27.535 1 17.9825C1 8.42988 8.82989 0.676758 18.5 0.676758C28.1701 0.676758 36 8.42988 36 17.9825Z" stroke="white"/>
<path d="M90 17.9825C90 27.535 82.1701 35.2881 72.5 35.2881C62.8299 35.2881 55 27.535 55 17.9825C55 8.42988 62.8299 0.676758 72.5 0.676758C82.1701 0.676758 90 8.42988 90 17.9825Z" stroke="white"/>
<path d="M142 17.9825C142 27.535 134.17 35.2881 124.5 35.2881C114.83 35.2881 107 27.535 107 17.9825C107 8.42988 114.83 0.676758 124.5 0.676758C134.17 0.676758 142 8.42988 142 17.9825Z" stroke="white"/>
<path d="M196 17.9825C196 27.5223 187.959 35.2881 178 35.2881C168.041 35.2881 160 27.5223 160 17.9825C160 8.44263 168.041 0.676758 178 0.676758C187.959 0.676758 196 8.44263 196 17.9825Z" stroke="white"/>
<path d="M10.5032 26.5735L11.5848 22.3055C10.8721 20.9935 10.4977 19.5014 10.5 17.9825C10.5 13.2377 14.0816 9.39148 18.5 9.39148C22.9184 9.39148 26.5 13.2377 26.5 17.9825C26.5 22.7273 22.9184 26.5735 18.5 26.5735C17.0862 26.576 15.6973 26.1742 14.476 25.4094L10.5032 26.5735ZM15.6128 13.9516C15.5095 13.9585 15.4085 13.9877 15.316 14.0375C15.2292 14.0903 15.15 14.1562 15.0808 14.2334C14.9848 14.3305 14.9304 14.4146 14.872 14.4963C14.5763 14.9095 14.4173 15.4167 14.42 15.9378C14.4216 16.3588 14.524 16.7686 14.684 17.1517C15.0112 17.9267 15.5496 18.7471 16.2608 19.5074C16.432 19.6904 16.5992 19.8742 16.7792 20.0452C17.6619 20.8798 18.7138 21.4816 19.8512 21.8029L20.3064 21.8777C20.4544 21.8862 20.6024 21.8742 20.7512 21.8665C20.9842 21.8536 21.2117 21.7858 21.4176 21.668C21.5224 21.6101 21.6246 21.547 21.724 21.479C21.724 21.479 21.7584 21.455 21.824 21.4017C21.932 21.3158 21.9984 21.2548 22.088 21.1543C22.1544 21.0804 22.212 20.9936 22.256 20.8948C22.3184 20.7548 22.3808 20.4876 22.4064 20.2651C22.4256 20.095 22.42 20.0022 22.4176 19.9447C22.4144 19.8528 22.3432 19.7574 22.2656 19.717L21.8 19.4928C21.8 19.4928 21.104 19.1672 20.6792 18.9593C20.6344 18.9383 20.5864 18.9264 20.5376 18.9241C20.4829 18.918 20.4276 18.9246 20.3754 18.9435C20.3232 18.9623 20.2754 18.9929 20.2352 19.0332V19.0315C20.2312 19.0315 20.1776 19.0804 19.5992 19.833C19.566 19.8809 19.5203 19.9171 19.4678 19.937C19.4154 19.9569 19.3587 19.9596 19.3048 19.9447C19.2527 19.9297 19.2016 19.9108 19.152 19.888C19.0528 19.8433 19.0184 19.8261 18.9504 19.7943L18.9464 19.7926C18.4887 19.578 18.065 19.2882 17.6904 18.9335C17.5896 18.839 17.496 18.7359 17.4 18.6363C17.0853 18.3126 16.811 17.9464 16.584 17.5469L16.5368 17.4653C16.5029 17.4105 16.4755 17.3513 16.4552 17.2892C16.4248 17.1629 16.504 17.0615 16.504 17.0615C16.504 17.0615 16.6984 16.833 16.7888 16.7093C16.8641 16.6065 16.9343 16.4995 16.9992 16.3889C17.0936 16.2256 17.1232 16.0581 17.0736 15.9284C16.8496 15.3408 16.6176 14.7557 16.3792 14.175C16.332 14.0598 16.192 13.9774 16.0648 13.961C16.0216 13.9559 15.9784 13.9507 15.9352 13.9473C15.8278 13.9416 15.7201 13.9427 15.6128 13.9507V13.9516Z" fill="white"/>
<path d="M76.4103 18.4872L76.8771 15.5607H73.9589V13.6616C73.9589 12.8611 74.3664 12.0803 75.6735 12.0803H77V9.58895C77 9.58895 75.7964 9.39136 74.6452 9.39136C72.2422 9.39136 70.6714 10.7932 70.6714 13.3306V15.5612H68V18.4877H70.6714V25.5627H73.9589V18.4877L76.4103 18.4872Z" fill="white"/>
<path d="M124.998 14.7808C123.621 14.7808 122.497 15.9924 122.497 17.4771C122.497 18.9619 123.621 20.1735 124.998 20.1735C126.375 20.1735 127.499 18.9619 127.499 17.4771C127.499 15.9924 126.375 14.7808 124.998 14.7808ZM132.499 17.4771C132.499 16.3606 132.509 15.2541 132.45 14.1396C132.392 12.845 132.118 11.696 131.24 10.7494C130.36 9.80068 129.296 9.50738 128.096 9.44467C127.06 9.38197 126.034 9.39208 125 9.39208C123.964 9.39208 122.938 9.38197 121.904 9.44467C120.703 9.50738 119.638 9.80271 118.76 10.7494C117.88 11.6981 117.608 12.845 117.549 14.1396C117.491 15.2561 117.501 16.3626 117.501 17.4771C117.501 18.5917 117.491 19.7002 117.549 20.8147C117.608 22.1093 117.881 23.2583 118.76 24.2049C119.639 25.1536 120.703 25.4469 121.904 25.5096C122.94 25.5723 123.966 25.5622 125 25.5622C126.036 25.5622 127.062 25.5723 128.096 25.5096C129.296 25.4469 130.362 25.1516 131.24 24.2049C132.12 23.2562 132.392 22.1093 132.45 20.8147C132.51 19.7002 132.499 18.5937 132.499 17.4771ZM124.998 21.6259C122.868 21.6259 121.15 19.773 121.15 17.4771C121.15 15.1813 122.868 13.3284 124.998 13.3284C127.128 13.3284 128.846 15.1813 128.846 17.4771C128.846 19.773 127.128 21.6259 124.998 21.6259ZM129.004 14.1274C128.507 14.1274 128.105 13.6945 128.105 13.1585C128.105 12.6225 128.507 12.1896 129.004 12.1896C129.501 12.1896 129.902 12.6225 129.902 13.1585C129.903 13.2858 129.879 13.4119 129.834 13.5295C129.789 13.6471 129.723 13.754 129.64 13.844C129.556 13.934 129.457 14.0054 129.348 14.054C129.239 14.1026 129.122 14.1276 129.004 14.1274Z" fill="white"/>
<path d="M187.103 13.1186C186.995 12.6905 186.783 12.3002 186.489 11.9867C186.194 11.6731 185.827 11.4473 185.424 11.3318C183.942 10.9082 178 10.9082 178 10.9082C178 10.9082 172.058 10.9082 170.576 11.3295C170.173 11.4446 169.806 11.6703 169.511 11.984C169.216 12.2976 169.004 12.6881 168.897 13.1163C168.5 14.6935 168.5 17.9832 168.5 17.9832C168.5 17.9832 168.5 21.2728 168.897 22.8478C169.115 23.7175 169.76 24.4024 170.576 24.6345C172.058 25.0581 178 25.0581 178 25.0581C178 25.0581 183.942 25.0581 185.424 24.6345C186.243 24.4024 186.885 23.7175 187.103 22.8478C187.5 21.2728 187.5 17.9832 187.5 17.9832C187.5 17.9832 187.5 14.6935 187.103 13.1186ZM176.113 21.0024V14.9639L181.032 17.9606L176.113 21.0024Z" fill="white"/>
</svg>
