<svg width="197" height="36" viewBox="0 0 197 36" fill="none" xmlns="http://www.w3.org/2000/svg">
<path d="M36.0194 17.8809C36.0194 27.2565 28.1978 34.8809 18.5194 34.8809C8.84105 34.8809 1.01941 27.2565 1.01941 17.8809C1.01941 8.5052 8.84105 0.880859 18.5194 0.880859C28.1978 0.880859 36.0194 8.5052 36.0194 17.8809Z" stroke="#3E207C"/>
<path d="M90.0194 17.8809C90.0194 27.2565 82.1978 34.8809 72.5194 34.8809C62.8411 34.8809 55.0194 27.2565 55.0194 17.8809C55.0194 8.5052 62.8411 0.880859 72.5194 0.880859C82.1978 0.880859 90.0194 8.5052 90.0194 17.8809Z" stroke="#3E207C"/>
<path d="M142.019 17.8809C142.019 27.2565 134.198 34.8809 124.519 34.8809C114.841 34.8809 107.019 27.2565 107.019 17.8809C107.019 8.5052 114.841 0.880859 124.519 0.880859C134.198 0.880859 142.019 8.5052 142.019 17.8809Z" stroke="#3E207C"/>
<path d="M196.019 17.8809C196.019 27.2439 187.987 34.8809 178.019 34.8809C168.052 34.8809 160.019 27.2439 160.019 17.8809C160.019 8.51783 168.052 0.880859 178.019 0.880859C187.987 0.880859 196.019 8.51783 196.019 17.8809Z" stroke="#3E207C"/>
<path d="M10.5226 26.3808L11.6042 22.1581C10.8915 20.86 10.5171 19.3836 10.5194 17.8809C10.5194 13.1863 14.101 9.38086 18.5194 9.38086C22.9378 9.38086 26.5194 13.1863 26.5194 17.8809C26.5194 22.5754 22.9378 26.3808 18.5194 26.3808C17.1056 26.3833 15.7167 25.9857 14.4954 25.2291L10.5226 26.3808ZM15.6322 13.8927C15.5289 13.8995 15.428 13.9284 15.3354 13.9777C15.2486 14.0299 15.1694 14.0951 15.1002 14.1715C15.0042 14.2675 14.9498 14.3508 14.8914 14.4316C14.5957 14.8404 14.4367 15.3423 14.4394 15.8579C14.441 16.2744 14.5434 16.6798 14.7034 17.0589C15.0306 17.8256 15.569 18.6374 16.2802 19.3896C16.4514 19.5707 16.6186 19.7526 16.7986 19.9217C17.6813 20.7474 18.7332 21.3429 19.8706 21.6608L20.3258 21.7348C20.4738 21.7433 20.6218 21.7314 20.7706 21.7237C21.0036 21.7109 21.2311 21.6439 21.437 21.5274C21.5418 21.47 21.644 21.4076 21.7434 21.3404C21.7434 21.3404 21.7778 21.3166 21.8434 21.2639C21.9514 21.1789 22.0178 21.1185 22.1074 21.0191C22.1738 20.946 22.2314 20.8601 22.2754 20.7624C22.3378 20.6238 22.4002 20.3595 22.4258 20.1393C22.445 19.971 22.4394 19.8792 22.437 19.8223C22.4338 19.7313 22.3626 19.637 22.285 19.597L21.8194 19.3752C21.8194 19.3752 21.1234 19.053 20.6986 18.8473C20.6538 18.8266 20.6058 18.8147 20.557 18.8125C20.5023 18.8065 20.447 18.813 20.3948 18.8316C20.3427 18.8503 20.2949 18.8805 20.2546 18.9204V18.9187C20.2506 18.9187 20.197 18.9672 19.6186 19.7118C19.5854 19.7591 19.5397 19.795 19.4873 19.8146C19.4348 19.8343 19.3781 19.837 19.3242 19.8223C19.2721 19.8074 19.221 19.7887 19.1714 19.7662C19.0722 19.722 19.0378 19.705 18.9698 19.6735L18.9658 19.6718C18.5081 19.4595 18.0844 19.1727 17.7098 18.8218C17.609 18.7283 17.5154 18.6263 17.4194 18.5277C17.1047 18.2075 16.8304 17.8452 16.6034 17.4499L16.5562 17.3692C16.5223 17.3149 16.4949 17.2564 16.4746 17.1949C16.4442 17.07 16.5234 16.9697 16.5234 16.9697C16.5234 16.9697 16.7178 16.7436 16.8082 16.6212C16.8835 16.5194 16.9537 16.4136 17.0186 16.3041C17.113 16.1426 17.1426 15.9769 17.093 15.8485C16.869 15.2671 16.637 14.6883 16.3986 14.1137C16.3514 13.9998 16.2114 13.9182 16.0842 13.902C16.041 13.8969 15.9978 13.8918 15.9546 13.8884C15.8472 13.8827 15.7395 13.8839 15.6322 13.8918V13.8927Z" fill="#3E207C"/>
<path d="M75.9297 18.3804L76.3965 15.4849H73.4783V13.6059C73.4783 12.8139 73.8858 12.0414 75.1929 12.0414H76.5194V9.57636C76.5194 9.57636 75.3158 9.38086 74.1646 9.38086C71.7616 9.38086 70.1908 10.7679 70.1908 13.2784V15.4854H67.5194V18.3809H70.1908V25.3809H73.4783V18.3809L75.9297 18.3804Z" fill="#3E207C"/>
<path d="M125.017 14.7131C123.64 14.7131 122.516 15.9119 122.516 17.3809C122.516 18.8499 123.64 20.0487 125.017 20.0487C126.395 20.0487 127.518 18.8499 127.518 17.3809C127.518 15.9119 126.395 14.7131 125.017 14.7131ZM132.519 17.3809C132.519 16.2761 132.528 15.1814 132.47 14.0786C132.412 12.7978 132.138 11.661 131.26 10.7244C130.38 9.78573 129.316 9.49553 128.115 9.43349C127.079 9.37145 126.053 9.38145 125.019 9.38145C123.984 9.38145 122.957 9.37145 121.923 9.43349C120.723 9.49553 119.657 9.78773 118.779 10.7244C117.899 11.663 117.627 12.7978 117.569 14.0786C117.511 15.1834 117.52 16.2781 117.52 17.3809C117.52 18.4836 117.511 19.5803 117.569 20.6831C117.627 21.964 117.901 23.1007 118.779 24.0374C119.659 24.976 120.723 25.2662 121.923 25.3282C122.959 25.3903 123.985 25.3803 125.019 25.3803C126.055 25.3803 127.081 25.3903 128.115 25.3282C129.316 25.2662 130.382 24.974 131.26 24.0374C132.14 23.0987 132.412 21.964 132.47 20.6831C132.53 19.5803 132.519 18.4856 132.519 17.3809ZM125.017 21.4856C122.888 21.4856 121.169 19.6524 121.169 17.3809C121.169 15.1093 122.888 13.2761 125.017 13.2761C127.147 13.2761 128.866 15.1093 128.866 17.3809C128.866 19.6524 127.147 21.4856 125.017 21.4856ZM129.023 14.0666C128.526 14.0666 128.124 13.6383 128.124 13.108C128.124 12.5776 128.526 12.1493 129.023 12.1493C129.52 12.1493 129.922 12.5776 129.922 13.108C129.922 13.2339 129.899 13.3586 129.854 13.475C129.809 13.5914 129.742 13.6971 129.659 13.7862C129.575 13.8752 129.476 13.9458 129.367 13.994C129.258 14.0421 129.141 14.0668 129.023 14.0666Z" fill="#3E207C"/>
<path d="M187.123 12.5678C187.015 12.1443 186.803 11.7581 186.508 11.4479C186.213 11.1376 185.846 10.9142 185.443 10.8C183.961 10.3809 178.019 10.3809 178.019 10.3809C178.019 10.3809 172.078 10.3809 170.595 10.7977C170.193 10.9116 169.825 11.1349 169.53 11.4452C169.236 11.7555 169.024 12.1419 168.916 12.5656C168.519 14.1261 168.519 17.3809 168.519 17.3809C168.519 17.3809 168.519 20.6356 168.916 22.1939C169.134 23.0544 169.779 23.7321 170.595 23.9618C172.078 24.3809 178.019 24.3809 178.019 24.3809C178.019 24.3809 183.961 24.3809 185.443 23.9618C186.262 23.7321 186.904 23.0544 187.123 22.1939C187.519 20.6356 187.519 17.3809 187.519 17.3809C187.519 17.3809 187.519 14.1261 187.123 12.5678ZM176.132 20.3681V14.3936L181.052 17.3586L176.132 20.3681Z" fill="#3E207C"/>
</svg>
