<svg width="18" height="18" viewBox="0 0 18 18" fill="none" xmlns="http://www.w3.org/2000/svg">
<path d="M10.7476 13.5835H2.74756C2.01821 13.5835 1.31874 13.2938 0.803015 12.778C0.28729 12.2623 -0.00244141 11.5628 -0.00244141 10.8335V2.8335C-0.00244141 2.10415 0.28729 1.40468 0.803015 0.888952C1.31874 0.373227 2.01821 0.0834961 2.74756 0.0834961H10.7476C11.4769 0.0834961 12.1764 0.373227 12.6921 0.888952C13.2078 1.40468 13.4976 2.10415 13.4976 2.8335V10.8335C13.4976 11.5628 13.2078 12.2623 12.6921 12.778C12.1764 13.2938 11.4769 13.5835 10.7476 13.5835ZM2.74756 1.5835C2.41604 1.5835 2.0981 1.71519 1.86368 1.94961C1.62925 2.18403 1.49756 2.50198 1.49756 2.8335V10.8335C1.49756 11.165 1.62925 11.483 1.86368 11.7174C2.0981 11.9518 2.41604 12.0835 2.74756 12.0835H10.7476C11.0791 12.0835 11.397 11.9518 11.6314 11.7174C11.8659 11.483 11.9976 11.165 11.9976 10.8335V2.8335C11.9976 2.50198 11.8659 2.18403 11.6314 1.94961C11.397 1.71519 11.0791 1.5835 10.7476 1.5835H2.74756Z" fill="white"/>
<path d="M14.7476 17.5835H6.74756C6.01821 17.5835 5.31874 17.2938 4.80301 16.778C4.28729 16.2623 3.99756 15.5628 3.99756 14.8335V12.8335H5.49756V14.8335C5.49756 15.165 5.62925 15.483 5.86368 15.7174C6.0981 15.9518 6.41604 16.0835 6.74756 16.0835H14.7476C15.0791 16.0835 15.397 15.9518 15.6314 15.7174C15.8659 15.483 15.9976 15.165 15.9976 14.8335V6.8335C15.9976 6.50198 15.8659 6.18403 15.6314 5.94961C15.397 5.71519 15.0791 5.5835 14.7476 5.5835H12.7476V4.0835H14.7476C15.4769 4.0835 16.1764 4.37323 16.6921 4.88895C17.2078 5.40468 17.4976 6.10415 17.4976 6.8335V14.8335C17.4976 15.5628 17.2078 16.2623 16.6921 16.778C16.1764 17.2938 15.4769 17.5835 14.7476 17.5835Z" fill="white"/>
</svg>
