<svg width="66" height="42" viewBox="0 0 66 42" fill="none" xmlns="http://www.w3.org/2000/svg">
<path d="M13.7373 8.9465C24.3374 -1.74812 41.5235 -1.74812 52.1236 8.9465L53.3994 10.2336C53.9294 10.7683 53.9294 11.6353 53.3994 12.1701L49.0353 16.573C48.7703 16.8404 48.3407 16.8404 48.0757 16.573L46.3201 14.8018C38.9252 7.34096 26.9357 7.34096 19.5408 14.8018L17.6607 16.6986C17.3957 16.966 16.9661 16.966 16.7011 16.6986L12.337 12.2957C11.807 11.7609 11.807 10.894 12.337 10.3592L13.7373 8.9465ZM61.1489 18.0523L65.0329 21.971C65.5629 22.5057 65.5629 23.3727 65.0329 23.9074L47.5196 41.5771C46.9896 42.1118 46.1303 42.1119 45.6003 41.5771C45.6003 41.5771 45.6003 41.5771 45.6003 41.5771L33.1705 29.0364C33.038 28.9027 32.8231 28.9027 32.6906 29.0364C32.6906 29.0364 32.6906 29.0364 32.6906 29.0364L20.261 41.5771C19.731 42.1118 18.8717 42.1119 18.3417 41.5771C18.3417 41.5771 18.3417 41.5771 18.3417 41.5771L0.827924 23.9072C0.297919 23.3724 0.297919 22.5055 0.827924 21.9707L4.71194 18.0521C5.24195 17.5173 6.10126 17.5173 6.63126 18.0521L19.0613 30.593C19.1938 30.7267 19.4086 30.7267 19.5411 30.593C19.5411 30.593 19.5411 30.593 19.5411 30.593L31.9706 18.0521C32.5006 17.5173 33.3599 17.5173 33.8899 18.052C33.8899 18.052 33.8899 18.052 33.8899 18.0521L46.3199 30.593C46.4524 30.7266 46.6673 30.7266 46.7998 30.593L59.2296 18.0523C59.7596 17.5176 60.6189 17.5176 61.1489 18.0523Z" fill="#3B99FC"/>
</svg>
